
	<svg xmlns="http://www.w3.org/2000/svg" xmlns:xlink="http://www.w3.org/1999/xlink" version="1.1" width="512" height="512" viewBox="0 0 100 100">


		<defs>
			<linearGradient id="Gradient_1" gradientUnits="userSpaceOnUse" x1="50" y1="53" x2="50" y2="0" spreadMethod="pad">
<stop offset="0%" stop-color="#FFFFFF" stop-opacity="0.1"/>

<stop offset="100%" stop-color="#FFFFFF" stop-opacity="0.4"/>
</linearGradient><linearGradient id="Gradient_2" gradientUnits="userSpaceOnUse" x1="100" y1="50" x2="0" y2="50" spreadMethod="pad">
<stop offset="0%" stop-color="#FFFFFF" stop-opacity="0.1"/>

<stop offset="100%" stop-color="#FFFFFF" stop-opacity="0.4"/>
</linearGradient><linearGradient id="Gradient_3" gradientUnits="userSpaceOnUse" x1="0" y1="50" x2="100" y2="50" spreadMethod="pad">
<stop offset="0%" stop-color="#FFFFFF" stop-opacity="0.1"/>

<stop offset="100%" stop-color="#FFFFFF" stop-opacity="0.4"/>
</linearGradient><g id="background">
<path fill="url(#background-gradient)" stroke="none" d=" M 0 0 L 0 100 100 100 100 0 0 0 Z"/>
</g><mask id="mask">
<path fill="#FFFFFF" stroke="none" d=" M 0 0 L 0 100 100 100 100 0 0 0 Z"/>
</mask><g id="gloss-top">
<path fill="url(#Gradient_1)" stroke="none" d=" M 100 53.1 L 100 0 0 0 0 53.1 100 53.1 Z"/>
</g><g id="gloss-right">
<path fill="url(#Gradient_2)" stroke="none" d=" M 100 100 L 100 0 0 0 100 100 Z"/>
</g><g id="gloss-left">
<path fill="url(#Gradient_3)" stroke="none" d=" M 0 0 L 0 100 100 0 0 0 Z"/>
</g>
			
	<linearGradient id="background-gradient" x1="0" y1="0" y2="1" x2="0" >
		<stop stop-color="#F7A8BE" offset="0%"/>
		<stop stop-color="#009342" offset="0%"/>
	</linearGradient>

			
			
			<g transform="scale(3.3333333333333335)" id="picture"><path d="M26.1 3.9C23.6 1.4 20.8 0 18.5 0c-.1 0-.3.1-.4.1-2.7 2.7-3.3 7.4.5 11.2 1.8 1.8 3.8 2.7 6 2.7 1.9 0 3.9-.8 5.2-2.2.1-.1.1-.2.1-.4.1-2.2-1.3-5-3.8-7.5zm1.9 6.6c-1.3 0-3.8-1.4-5.4-3.1-1.7-1.7-3.1-4.1-3.1-5.4 0-.3.2-.5.5-.5s.5.2.5.5c0 .9 1.1 3.1 2.8 4.7 1.6 1.6 3.8 2.8 4.7 2.8.3 0 .5.2.5.5s-.2.5-.5.5zm-6.4 4c-1.3-.5-2.6-1.3-3.7-2.4-1.1-1.1-1.8-2.2-2.3-3.5-.1-.2-.2-.3-.4-.3s-.3 0-.4.1c-1.9 1.8-3 2.8-3.3 3.1-.8.8-.7 2.5 1.9 5.1 1.5 1.5 2.9 2.3 4 2.3.5 0 .8-.1 1.1-.4.4-.4 2-2 3.3-3.2.1-.1.2-.3.1-.5s-.1-.2-.3-.3z M19.3 19.5c-.1-.1-.3 0-.4 0-.4.3-.9.4-1.4.4-1 0-2.6-.5-4.7-2.6-2.3-2.3-3.2-4.6-2.2-6.1.1-.1.1-.3 0-.4s-.2-.3-.3-.3c-.8-.2-1.6-.4-2.4-.4-1.2 0-2.9.3-4.1 1.6-1 1-.8 2.6.5 4.8 1.3 2.1 3.2 4.2 4.2 5.2C9.7 22.9 14 27 16.9 27c.7 0 1.2-.2 1.6-.6 1.8-1.8 1.8-4.6 1.2-6.5-.2-.2-.3-.4-.4-.4zM7.6 22.4c-.3-.3-.7-.7-1-1.1-.1-.1-.2-.2-.4-.2-.1 0-.3.1-.4.2L0 29.1c0 .3 0 .6.1.8.1 0 .3.1.4.1.1 0 .2 0 .3-.1l7.8-5.8c.1-.1.2-.2.2-.4 0-.1-.1-.3-.2-.4-.3-.3-.6-.6-1-.9z"/></g>
			
	<linearGradient id="picture-gradient" x1="0" y1="0" y2="1" x2="0" >
		<stop stop-color="#ffffff" offset="0%"/>
		<stop stop-color="#e5eff9" offset="100%"/>
	</linearGradient>

		</defs>

		

			<use xlink:href="#background" fill="url(#background-gradient)" />

		

			<g mask="url(#mask)">
				<g transform="
				        translate(
                                50 50
)
                            translate(0 0)  scale(0.5)  
                            translate(
                                -50 -50
)">
						<use xlink:href="#picture" fill="url(#picture-gradient)"  />
				</g>
			</g>

		



	</svg>
